<?xml version="1.0" standalone="no"?>
<!DOCTYPE svg PUBLIC "-//W3C//DTD SVG 20010904//EN"
 "http://www.w3.org/TR/2001/REC-SVG-20010904/DTD/svg10.dtd">
<svg version="1.0" xmlns="http://www.w3.org/2000/svg"
 height="48" viewBox="0 0 512.000000 512.000000"
 preserveAspectRatio="xMidYMid meet">

<g transform="translate(0.000000,512.000000) scale(0.100000,-0.100000)"
fill="#00ff4cd5" stroke="none">
<path d="M1198 3983 l-88 -87 -68 66 c-77 75 -102 91 -135 83 -13 -4 -135
-118 -271 -254 -221 -221 -247 -251 -248 -281 -1 -38 38 -80 75 -80 14 0 91
70 239 217 l218 218 40 -40 40 -40 -360 -360 -360 -359 -40 39 -40 39 45 46
c55 55 61 96 19 129 -48 37 -70 29 -161 -62 -110 -110 -110 -117 -6 -220 l77
-76 -87 -89 -87 -89 0 -545 c0 -420 3 -548 13 -560 14 -18 289 -264 331 -296
28 -22 35 -22 311 -22 l281 0 17 -52 c36 -113 146 -213 267 -244 192 -49 393
60 455 247 l17 49 97 0 97 0 18 -54 c55 -160 224 -268 394 -253 149 14 281
118 327 258 l17 49 389 0 390 0 24 25 c32 31 32 69 0 100 l-24 25 -389 0 -388
0 -26 65 -25 65 564 0 563 0 -14 -22 c-29 -46 -49 -139 -43 -208 13 -156 107
-283 251 -336 80 -30 205 -26 279 9 109 50 177 123 213 231 l16 46 324 0 325
0 24 25 25 24 0 639 0 638 -91 154 c-304 514 -412 691 -431 705 -20 13 -89 15
-535 15 l-513 0 0 230 0 231 -25 24 -24 25 -1107 0 -1107 0 -89 -87z m2202
-1123 l0 -1061 -537 5 c-675 7 -592 7 -1033 0 -206 -3 -390 -2 -407 1 l-33 6
0 913 c0 893 0 913 -20 933 -10 12 -28 24 -40 28 -18 6 -20 15 -20 102 0 76 4
100 17 115 15 17 61 18 1045 18 l1028 0 0 -1060z m1342 168 l228 -383 0 -421
0 -421 -82 -6 c-46 -4 -217 -7 -382 -7 -242 0 -314 3 -381 17 -78 16 -87 16
-161 0 -57 -12 -127 -17 -247 -17 l-167 0 0 810 0 810 483 0 482 0 227 -382z
m-3778 -1435 c-13 -27 -24 -56 -24 -65 0 -17 -19 -18 -258 -18 l-258 0 -69 61
c-39 34 -72 63 -74 65 -2 2 156 4 351 4 l355 0 -23 -47z m962 25 c-8 -13 -20
-42 -27 -65 l-12 -43 -97 0 -96 0 -26 65 -25 65 149 0 148 0 -14 -22z m3044
-43 l0 -65 -275 0 -275 0 -6 28 c-4 15 -15 44 -26 65 l-18 37 300 0 300 0 0
-65z 
M2313 3539 c-89 -44 -112 -144 -39 -174 35 -15 69 -6 95 26 9 12 22
18 31 14 14 -5 302 -516 296 -523 -2 -1 -26 3 -53 9 -67 16 -101 6 -117 -33
-16 -36 -11 -60 15 -84 20 -18 276 -93 320 -94 46 0 66 36 109 198 39 143 40
155 26 177 -21 32 -53 48 -81 41 -35 -9 -54 -32 -66 -82 -6 -24 -14 -44 -18
-44 -3 0 -67 111 -141 247 -74 135 -146 259 -160 276 -30 36 -93 66 -140 67
-19 0 -54 -9 -77 -21z
M1930 3094 c-69 -19 -135 -41 -146 -49 -30 -19 -38 -59 -19 -95 19
-36 52 -46 110 -31 24 6 48 11 54 11 5 0 -49 -105 -120 -232 -71 -128 -132
-247 -135 -264 -13 -69 40 -167 105 -193 15 -7 48 -11 71 -9 98 7 105 125 9
145 -19 4 -29 12 -29 24 0 20 230 439 241 439 4 0 10 -16 13 -35 10 -50 46
-88 84 -88 44 0 72 28 72 72 -1 57 -75 313 -96 328 -27 20 -77 15 -214 -23z

M2306 2451 c-157 -158 -157 -146 1 -302 129 -128 147 -137 197 -98
39 30 35 75 -10 127 l-36 42 234 0 c128 0 253 5 277 11 96 22 146 91 139 192
-4 50 -9 64 -32 84 -35 30 -71 29 -102 -2 -22 -22 -25 -33 -22 -73 l3 -47
-254 -3 -254 -2 42 45 c28 30 41 54 41 73 0 39 -33 72 -73 72 -28 0 -48 -16
-151 -119z

M3740 3210 c-19 -19 -20 -33 -20 -305 0 -272 1 -286 20 -305 19 -19
33 -20 265 -20 l245 0 0 -150 c0 -205 -20 -190 253 -190 279 0 257 -21 257
240 l0 193 -146 256 c-81 141 -156 266 -167 279 -20 22 -21 22 -354 22 -320 0
-334 -1 -353 -20z m679 -250 c37 -63 82 -141 100 -172 l32 -58 -340 0 -341 0
0 175 0 175 241 -2 241 -3 67 -115z m191 -475 l0 -95 -105 0 -105 0 0 95 0 95
105 0 105 0 0 -95z
"

/>

</g>
</svg>
